<svg width="32" height="32" viewBox="0 0 32 32" fill="none" xmlns="http://www.w3.org/2000/svg">
<rect width="32" height="32" rx="15.9203" fill="#17694C"/>
<path d="M12.126 20.6336L11.4604 19.9168L13.5425 17.8688C13.2353 17.4934 13.0021 17.0951 12.8428 16.6742C12.6949 16.2532 12.6209 15.8038 12.6209 15.3259C12.6209 14.5977 12.7973 13.9378 13.15 13.3462C13.5141 12.7432 13.9977 12.2653 14.6007 11.9126C15.2037 11.5485 15.8636 11.3664 16.5804 11.3664C17.3086 11.3664 17.9685 11.5485 18.5601 11.9126C19.1632 12.2653 19.641 12.7432 19.9937 13.3462C20.3578 13.9378 20.5399 14.5977 20.5399 15.3259C20.5399 16.0427 20.3578 16.7026 19.9937 17.3056C19.641 17.9087 19.1632 18.3922 18.5601 18.7563C17.9685 19.109 17.3086 19.2854 16.5804 19.2854C16.1481 19.2854 15.7385 19.2228 15.3516 19.0976C14.9648 18.9725 14.6007 18.7847 14.2593 18.5344L12.126 20.6336ZM16.5804 18.2102C17.1038 18.2102 17.5817 18.085 18.014 17.8347C18.4577 17.573 18.8105 17.226 19.0721 16.7936C19.3338 16.3499 19.4647 15.8607 19.4647 15.3259C19.4647 14.7911 19.3338 14.3076 19.0721 13.8752C18.8105 13.4315 18.4634 13.0845 18.0311 12.8342C17.5987 12.5725 17.1152 12.4416 16.5804 12.4416C16.0457 12.4416 15.5564 12.5725 15.1127 12.8342C14.6803 13.0845 14.3333 13.4315 14.0716 13.8752C13.8213 14.3076 13.6961 14.7911 13.6961 15.3259C13.6961 15.8607 13.8213 16.3499 14.0716 16.7936C14.3333 17.226 14.6803 17.573 15.1127 17.8347C15.5564 18.085 16.0457 18.2102 16.5804 18.2102Z" fill="white"/>
</svg>
